<mxfile host="app.diagrams.net" modified="2023-12-06T21:00:46.070Z" agent="Mozilla/5.0 (Macintosh; Intel Mac OS X 10_15_7) AppleWebKit/537.36 (KHTML, like Gecko) Chrome/119.0.0.0 Safari/537.36" etag="v_D5HHBkQVQDHQ7I9Vff" version="21.5.2" type="device">
  <diagram id="C5RBs43oDa-KdzZeNtuy" name="Page-1">
    <mxGraphModel dx="1434" dy="822" grid="1" gridSize="10" guides="1" tooltips="1" connect="1" arrows="1" fold="1" page="1" pageScale="1" pageWidth="827" pageHeight="1169" math="0" shadow="0">
      <root>
        <mxCell id="WIyWlLk6GJQsqaUBKTNV-0" />
        <mxCell id="WIyWlLk6GJQsqaUBKTNV-1" parent="WIyWlLk6GJQsqaUBKTNV-0" />
        <mxCell id="h_RD9dawk91Q07xSKtJ4-15" value="Evet" style="rounded=0;html=1;jettySize=auto;orthogonalLoop=1;fontSize=11;endArrow=block;endFill=0;endSize=8;strokeWidth=1;shadow=0;labelBackgroundColor=none;edgeStyle=orthogonalEdgeStyle;" parent="WIyWlLk6GJQsqaUBKTNV-1" edge="1">
          <mxGeometry y="20" relative="1" as="geometry">
            <mxPoint as="offset" />
            <mxPoint x="502.5" y="723" as="sourcePoint" />
            <mxPoint x="502.5" y="783" as="targetPoint" />
          </mxGeometry>
        </mxCell>
        <mxCell id="h_RD9dawk91Q07xSKtJ4-16" value="Host down olduğuna dair log geldi mi? (Bloklandın mı)" style="rhombus;whiteSpace=wrap;html=1;shadow=0;fontFamily=Helvetica;fontSize=12;align=center;strokeWidth=1;spacing=6;spacingTop=-4;" parent="WIyWlLk6GJQsqaUBKTNV-1" vertex="1">
          <mxGeometry x="437.5" y="603" width="130" height="120" as="geometry" />
        </mxCell>
        <mxCell id="h_RD9dawk91Q07xSKtJ4-17" value="block = 10" style="shape=process;whiteSpace=wrap;html=1;backgroundOutline=1;" parent="WIyWlLk6GJQsqaUBKTNV-1" vertex="1">
          <mxGeometry x="652.5" y="624" width="120" height="60" as="geometry" />
        </mxCell>
        <mxCell id="h_RD9dawk91Q07xSKtJ4-18" value="Hayır" style="rounded=0;html=1;jettySize=auto;orthogonalLoop=1;fontSize=11;endArrow=block;endFill=0;endSize=8;strokeWidth=1;shadow=0;labelBackgroundColor=none;edgeStyle=orthogonalEdgeStyle;entryX=-0.017;entryY=0.65;entryDx=0;entryDy=0;entryPerimeter=0;exitX=1;exitY=0.5;exitDx=0;exitDy=0;" parent="WIyWlLk6GJQsqaUBKTNV-1" source="h_RD9dawk91Q07xSKtJ4-16" target="h_RD9dawk91Q07xSKtJ4-17" edge="1">
          <mxGeometry y="20" relative="1" as="geometry">
            <mxPoint as="offset" />
            <mxPoint x="572.5" y="658" as="sourcePoint" />
            <mxPoint x="622.5" y="668" as="targetPoint" />
          </mxGeometry>
        </mxCell>
        <mxCell id="h_RD9dawk91Q07xSKtJ4-19" value="block = 0" style="shape=process;whiteSpace=wrap;html=1;backgroundOutline=1;" parent="WIyWlLk6GJQsqaUBKTNV-1" vertex="1">
          <mxGeometry x="442.5" y="783" width="120" height="60" as="geometry" />
        </mxCell>
        <mxCell id="h_RD9dawk91Q07xSKtJ4-21" value="" style="rounded=0;html=1;jettySize=auto;orthogonalLoop=1;fontSize=11;endArrow=block;endFill=0;endSize=8;strokeWidth=1;shadow=0;labelBackgroundColor=none;edgeStyle=orthogonalEdgeStyle;entryX=0.5;entryY=0;entryDx=0;entryDy=0;exitX=0.5;exitY=1;exitDx=0;exitDy=0;" parent="WIyWlLk6GJQsqaUBKTNV-1" source="h_RD9dawk91Q07xSKtJ4-24" target="h_RD9dawk91Q07xSKtJ4-16" edge="1">
          <mxGeometry y="20" relative="1" as="geometry">
            <mxPoint as="offset" />
            <mxPoint x="502.5" y="548" as="sourcePoint" />
            <mxPoint x="562.5" y="578" as="targetPoint" />
          </mxGeometry>
        </mxCell>
        <mxCell id="h_RD9dawk91Q07xSKtJ4-23" value="try-to-be-blocked.py script&#39;ini çalıştır" style="rounded=1;whiteSpace=wrap;html=1;" parent="WIyWlLk6GJQsqaUBKTNV-1" vertex="1">
          <mxGeometry x="442.5" y="389" width="120" height="60" as="geometry" />
        </mxCell>
        <mxCell id="h_RD9dawk91Q07xSKtJ4-24" value="Web uygulamasının çalıştığı linki gir" style="shape=parallelogram;perimeter=parallelogramPerimeter;whiteSpace=wrap;html=1;fixedSize=1;" parent="WIyWlLk6GJQsqaUBKTNV-1" vertex="1">
          <mxGeometry x="430" y="504" width="145" height="50" as="geometry" />
        </mxCell>
        <mxCell id="h_RD9dawk91Q07xSKtJ4-25" value="" style="rounded=0;html=1;jettySize=auto;orthogonalLoop=1;fontSize=11;endArrow=block;endFill=0;endSize=8;strokeWidth=1;shadow=0;labelBackgroundColor=none;edgeStyle=orthogonalEdgeStyle;entryX=0.5;entryY=0;entryDx=0;entryDy=0;exitX=0.5;exitY=1;exitDx=0;exitDy=0;" parent="WIyWlLk6GJQsqaUBKTNV-1" source="h_RD9dawk91Q07xSKtJ4-23" target="h_RD9dawk91Q07xSKtJ4-24" edge="1">
          <mxGeometry y="20" relative="1" as="geometry">
            <mxPoint as="offset" />
            <mxPoint x="617.5" y="407" as="sourcePoint" />
            <mxPoint x="617.5" y="480" as="targetPoint" />
          </mxGeometry>
        </mxCell>
        <mxCell id="h_RD9dawk91Q07xSKtJ4-32" value="Başarısız" style="rounded=0;html=1;jettySize=auto;orthogonalLoop=1;fontSize=11;endArrow=block;endFill=0;endSize=8;strokeWidth=1;shadow=0;labelBackgroundColor=none;edgeStyle=orthogonalEdgeStyle;" parent="WIyWlLk6GJQsqaUBKTNV-1" edge="1">
          <mxGeometry y="20" relative="1" as="geometry">
            <mxPoint as="offset" />
            <mxPoint x="135" y="660" as="sourcePoint" />
            <mxPoint x="135" y="720" as="targetPoint" />
          </mxGeometry>
        </mxCell>
        <mxCell id="h_RD9dawk91Q07xSKtJ4-33" value="injection atağı dene" style="rhombus;whiteSpace=wrap;html=1;shadow=0;fontFamily=Helvetica;fontSize=12;align=center;strokeWidth=1;spacing=6;spacingTop=-4;" parent="WIyWlLk6GJQsqaUBKTNV-1" vertex="1">
          <mxGeometry x="70" y="540" width="130" height="120" as="geometry" />
        </mxCell>
        <mxCell id="h_RD9dawk91Q07xSKtJ4-34" value="validate = 10" style="shape=process;whiteSpace=wrap;html=1;backgroundOutline=1;" parent="WIyWlLk6GJQsqaUBKTNV-1" vertex="1">
          <mxGeometry x="290" y="570" width="120" height="60" as="geometry" />
        </mxCell>
        <mxCell id="h_RD9dawk91Q07xSKtJ4-35" value="Başarılı" style="rounded=0;html=1;jettySize=auto;orthogonalLoop=1;fontSize=11;endArrow=block;endFill=0;endSize=8;strokeWidth=1;shadow=0;labelBackgroundColor=none;edgeStyle=orthogonalEdgeStyle;exitX=1;exitY=0.5;exitDx=0;exitDy=0;entryX=0;entryY=0.5;entryDx=0;entryDy=0;" parent="WIyWlLk6GJQsqaUBKTNV-1" source="h_RD9dawk91Q07xSKtJ4-33" target="h_RD9dawk91Q07xSKtJ4-34" edge="1">
          <mxGeometry y="20" relative="1" as="geometry">
            <mxPoint as="offset" />
            <mxPoint x="200" y="610" as="sourcePoint" />
            <mxPoint x="290" y="610" as="targetPoint" />
          </mxGeometry>
        </mxCell>
        <mxCell id="h_RD9dawk91Q07xSKtJ4-36" value="validate = 0" style="shape=process;whiteSpace=wrap;html=1;backgroundOutline=1;" parent="WIyWlLk6GJQsqaUBKTNV-1" vertex="1">
          <mxGeometry x="75" y="720" width="120" height="60" as="geometry" />
        </mxCell>
        <mxCell id="h_RD9dawk91Q07xSKtJ4-37" value="Web uygulamasında formları aç" style="rounded=1;whiteSpace=wrap;html=1;" parent="WIyWlLk6GJQsqaUBKTNV-1" vertex="1">
          <mxGeometry x="75" y="419" width="120" height="60" as="geometry" />
        </mxCell>
        <mxCell id="h_RD9dawk91Q07xSKtJ4-38" value="" style="rounded=0;html=1;jettySize=auto;orthogonalLoop=1;fontSize=11;endArrow=block;endFill=0;endSize=8;strokeWidth=1;shadow=0;labelBackgroundColor=none;edgeStyle=orthogonalEdgeStyle;entryX=0.5;entryY=0;entryDx=0;entryDy=0;exitX=0.5;exitY=1;exitDx=0;exitDy=0;" parent="WIyWlLk6GJQsqaUBKTNV-1" source="h_RD9dawk91Q07xSKtJ4-37" edge="1">
          <mxGeometry y="20" relative="1" as="geometry">
            <mxPoint as="offset" />
            <mxPoint x="285.5" y="497" as="sourcePoint" />
            <mxPoint x="135" y="540" as="targetPoint" />
          </mxGeometry>
        </mxCell>
      </root>
    </mxGraphModel>
  </diagram>
</mxfile>
